<svg xmlns="http://www.w3.org/2000/svg" xmlns:xlink="http://www.w3.org/1999/xlink" width="1371" height="1646" contentStyleType="text/css" preserveAspectRatio="none" style="width:1371px;height:1646px;background:#fff" version="1.1" viewBox="0 0 1371 1646" zoomAndPan="magnify"><g><line style="stroke:#181818;stroke-width:1.5" x1="1218" x2="1218" y1="63.969" y2="83.969"/><rect width="63" height="33.969" x="1186.5" fill="#F1F1F1" style="stroke:#181818;stroke-width:1.5" y="83.969"/><text x="1196.5" y="105.107" fill="#000" font-family="sans-serif" font-size="12" lengthAdjust="spacing" textLength="43">Startup</text><line style="stroke:#181818;stroke-width:1.5" x1="1208" x2="1218" y1="149.922" y2="149.922"/><rect width="136" height="33.969" x="1072" fill="#F1F1F1" style="stroke:#181818;stroke-width:1.5" y="132.938"/><text x="1082" y="154.076" fill="#000" font-family="sans-serif" font-size="12" lengthAdjust="spacing" textLength="116">Main Process Tests</text><line style="stroke:#181818;stroke-width:1.5" x1="177.5" x2="1218" y1="198.891" y2="198.891"/><rect width="133" height="33.969" x="44.5" fill="#F1F1F1" style="stroke:#181818;stroke-width:1.5" y="181.906"/><text x="54.5" y="203.045" fill="#000" font-family="sans-serif" font-size="12" lengthAdjust="spacing" textLength="113">Application Startup</text><line style="stroke:#181818;stroke-width:1.5" x1="101" x2="111" y1="247.859" y2="247.859"/><rect width="91" height="33.969" x="10" fill="#F1F1F1" style="stroke:#181818;stroke-width:1.5" y="230.875"/><text x="20" y="252.014" fill="#000" font-family="sans-serif" font-size="12" lengthAdjust="spacing" textLength="71">Test Runner</text><line style="stroke:#181818;stroke-width:1.5" x1="111" x2="121" y1="247.859" y2="247.859"/><rect width="190" height="33.969" x="121" fill="#F1F1F1" style="stroke:#181818;stroke-width:1.5" y="230.875"/><text x="131" y="252.014" fill="#000" font-family="sans-serif" font-size="12" lengthAdjust="spacing" textLength="170">Initialize Application Window</text><line style="stroke:#181818;stroke-width:1.5" x1="216" x2="783" y1="296.828" y2="296.828"/><rect width="88" height="33.969" x="783" fill="#F1F1F1" style="stroke:#181818;stroke-width:1.5" y="279.844"/><text x="793" y="300.982" fill="#000" font-family="sans-serif" font-size="12" lengthAdjust="spacing" textLength="68">&apos;The World&apos;</text><line style="stroke:#181818;stroke-width:1.5" x1="713" x2="827" y1="345.797" y2="345.797"/><rect width="58" height="33.969" x="655" fill="#F1F1F1" style="stroke:#181818;stroke-width:1.5" y="328.813"/><text x="665" y="349.951" fill="#000" font-family="sans-serif" font-size="12" lengthAdjust="spacing" textLength="38">Config</text><line style="stroke:#181818;stroke-width:1.5" x1="684" x2="694" y1="394.766" y2="394.766"/><rect width="123" height="33.969" x="694" fill="#F1F1F1" style="stroke:#181818;stroke-width:1.5" y="377.781"/><text x="704" y="398.92" fill="#000" font-family="sans-serif" font-size="12" lengthAdjust="spacing" textLength="103">ScopeDescriptor</text><line style="stroke:#181818;stroke-width:1.5" x1="684" x2="684" y1="362.781" y2="394.766"/><line style="stroke:#181818;stroke-width:1.5" x1="817" x2="827" y1="443.734" y2="443.734"/><rect width="129" height="33.969" x="688" fill="#F1F1F1" style="stroke:#181818;stroke-width:1.5" y="426.75"/><text x="698" y="447.889" fill="#000" font-family="sans-serif" font-size="12" lengthAdjust="spacing" textLength="109">CommandRegistry</text><line style="stroke:#181818;stroke-width:1.5" x1="817" x2="827" y1="492.703" y2="492.703"/><rect width="135" height="33.969" x="682" fill="#F1F1F1" style="stroke:#181818;stroke-width:1.5" y="475.719"/><text x="692" y="496.857" fill="#000" font-family="sans-serif" font-size="12" lengthAdjust="spacing" textLength="115">URIHandlerRegistry</text><line style="stroke:#181818;stroke-width:1.5" x1="759" x2="827" y1="541.672" y2="541.672"/><rect width="104" height="33.969" x="655" fill="#F1F1F1" style="stroke:#181818;stroke-width:1.5" y="524.688"/><text x="665" y="545.826" fill="#000" font-family="sans-serif" font-size="12" lengthAdjust="spacing" textLength="84">MenuManager</text><line style="stroke:#181818;stroke-width:1.5" x1="707" x2="717" y1="590.641" y2="590.641"/><rect width="100" height="33.969" x="717" fill="#F1F1F1" style="stroke:#181818;stroke-width:1.5" y="573.656"/><text x="727" y="594.795" fill="#000" font-family="sans-serif" font-size="12" lengthAdjust="spacing" textLength="80">MenuHelpers</text><line style="stroke:#181818;stroke-width:1.5" x1="707" x2="707" y1="558.656" y2="590.641"/><line style="stroke:#181818;stroke-width:1.5" x1="749" x2="827" y1="639.609" y2="639.609"/><rect width="130" height="33.969" x="619" fill="#F1F1F1" style="stroke:#181818;stroke-width:1.5" y="622.625"/><text x="629" y="643.764" fill="#000" font-family="sans-serif" font-size="12" lengthAdjust="spacing" textLength="110">TextEditorRegistry</text><line style="stroke:#181818;stroke-width:1.5" x1="684" x2="694" y1="688.578" y2="688.578"/><rect width="81" height="33.969" x="694" fill="#F1F1F1" style="stroke:#181818;stroke-width:1.5" y="671.594"/><text x="704" y="692.732" fill="#000" font-family="sans-serif" font-size="12" lengthAdjust="spacing" textLength="61">TextEditor</text><line style="stroke:#181818;stroke-width:1.5" x1="684" x2="694" y1="737.547" y2="737.547"/><rect width="123" height="33.969" x="694" fill="#F1F1F1" style="stroke:#181818;stroke-width:1.5" y="720.563"/><text x="704" y="741.701" fill="#000" font-family="sans-serif" font-size="12" lengthAdjust="spacing" textLength="103">ScopeDescriptor</text><line style="stroke:#181818;stroke-width:1.5" x1="684" x2="684" y1="656.594" y2="737.547"/><line style="stroke:#181818;stroke-width:1.5" x1="817" x2="827" y1="786.516" y2="786.516"/><rect width="145" height="33.969" x="672" fill="#F1F1F1" style="stroke:#181818;stroke-width:1.5" y="769.531"/><text x="682" y="790.67" fill="#000" font-family="sans-serif" font-size="12" lengthAdjust="spacing" textLength="125">DeserializerManager</text><line style="stroke:#181818;stroke-width:1.5" x1="817" x2="827" y1="835.484" y2="835.484"/><rect width="98" height="33.969" x="719" fill="#F1F1F1" style="stroke:#181818;stroke-width:1.5" y="818.5"/><text x="729" y="839.639" fill="#000" font-family="sans-serif" font-size="12" lengthAdjust="spacing" textLength="78">ViewRegistry</text><line style="stroke:#181818;stroke-width:1.5" x1="757" x2="827" y1="884.453" y2="884.453"/><rect width="122" height="33.969" x="635" fill="#F1F1F1" style="stroke:#181818;stroke-width:1.5" y="867.469"/><text x="645" y="888.607" fill="#000" font-family="sans-serif" font-size="12" lengthAdjust="spacing" textLength="102">PackageManager</text><line style="stroke:#181818;stroke-width:1.5" x1="696" x2="706" y1="933.422" y2="933.422"/><rect width="70" height="33.969" x="706" fill="#F1F1F1" style="stroke:#181818;stroke-width:1.5" y="916.438"/><text x="716" y="937.576" fill="#000" font-family="sans-serif" font-size="12" lengthAdjust="spacing" textLength="50">Package</text><line style="stroke:#181818;stroke-width:1.5" x1="696" x2="706" y1="982.391" y2="982.391"/><rect width="111" height="33.969" x="706" fill="#F1F1F1" style="stroke:#181818;stroke-width:1.5" y="965.406"/><text x="716" y="986.545" fill="#000" font-family="sans-serif" font-size="12" lengthAdjust="spacing" textLength="91">ThemePackage</text><line style="stroke:#181818;stroke-width:1.5" x1="696" x2="706" y1="1031.359" y2="1031.359"/><rect width="101" height="33.969" x="706" fill="#F1F1F1" style="stroke:#181818;stroke-width:1.5" y="1014.375"/><text x="716" y="1035.514" fill="#000" font-family="sans-serif" font-size="12" lengthAdjust="spacing" textLength="81">ModuleCache</text><line style="stroke:#181818;stroke-width:1.5" x1="696" x2="696" y1="901.438" y2="1031.359"/><line style="stroke:#181818;stroke-width:1.5" x1="817" x2="827" y1="1080.328" y2="1080.328"/><rect width="127" height="33.969" x="690" fill="#F1F1F1" style="stroke:#181818;stroke-width:1.5" y="1063.344"/><text x="700" y="1084.482" fill="#000" font-family="sans-serif" font-size="12" lengthAdjust="spacing" textLength="107">CommandInstaller</text><line style="stroke:#181818;stroke-width:1.5" x1="817" x2="827" y1="1129.297" y2="1129.297"/><rect width="163" height="33.969" x="654" fill="#F1F1F1" style="stroke:#181818;stroke-width:1.5" y="1112.313"/><text x="664" y="1133.451" fill="#000" font-family="sans-serif" font-size="12" lengthAdjust="spacing" textLength="143">ProtocolHandlerInstaller</text><line style="stroke:#181818;stroke-width:1.5" x1="817" x2="827" y1="1178.266" y2="1178.266"/><rect width="143" height="33.969" x="674" fill="#F1F1F1" style="stroke:#181818;stroke-width:1.5" y="1161.281"/><text x="684" y="1182.42" fill="#000" font-family="sans-serif" font-size="12" lengthAdjust="spacing" textLength="123">AutoUpdateManager</text><line style="stroke:#181818;stroke-width:1.5" x1="817" x2="827" y1="1227.234" y2="1227.234"/><rect width="148" height="33.969" x="669" fill="#F1F1F1" style="stroke:#181818;stroke-width:1.5" y="1210.25"/><text x="679" y="1231.389" fill="#000" font-family="sans-serif" font-size="12" lengthAdjust="spacing" textLength="128">WindowEventHandler</text><line style="stroke:#181818;stroke-width:1.5" x1="743" x2="753" y1="1276.203" y2="1276.203"/><rect width="52" height="33.969" x="753" fill="#F1F1F1" style="stroke:#181818;stroke-width:1.5" y="1259.219"/><text x="763" y="1280.357" fill="#000" font-family="sans-serif" font-size="12" lengthAdjust="spacing" textLength="32">listen</text><line style="stroke:#181818;stroke-width:1.5" x1="743" x2="743" y1="1244.219" y2="1276.203"/><line style="stroke:#181818;stroke-width:1.5" x1="625" x2="827" y1="1325.172" y2="1325.172"/><rect width="124" height="33.969" x="501" fill="#F1F1F1" style="stroke:#181818;stroke-width:1.5" y="1308.188"/><text x="511" y="1329.326" fill="#000" font-family="sans-serif" font-size="12" lengthAdjust="spacing" textLength="104">GrammarRegistry</text><line style="stroke:#181818;stroke-width:1.5" x1="505" x2="563" y1="1374.141" y2="1374.141"/><rect width="204" height="33.969" x="301" fill="#F1F1F1" style="stroke:#181818;stroke-width:1.5" y="1357.156"/><text x="311" y="1378.295" fill="#000" font-family="sans-serif" font-size="12" lengthAdjust="spacing" textLength="184">NodeTreeSitterLanguageMode</text><line style="stroke:#181818;stroke-width:1.5" x1="393" x2="403" y1="1423.109" y2="1423.109"/><rect width="167" height="33.969" x="226" fill="#F1F1F1" style="stroke:#181818;stroke-width:1.5" y="1406.125"/><text x="236" y="1427.264" fill="#000" font-family="sans-serif" font-size="12" lengthAdjust="spacing" textLength="147">TextMateLanguageMode</text><line style="stroke:#181818;stroke-width:1.5" x1="393" x2="403" y1="1472.078" y2="1472.078"/><rect width="123" height="33.969" x="270" fill="#F1F1F1" style="stroke:#181818;stroke-width:1.5" y="1455.094"/><text x="280" y="1476.232" fill="#000" font-family="sans-serif" font-size="12" lengthAdjust="spacing" textLength="103">ScopeDescriptor</text><line style="stroke:#181818;stroke-width:1.5" x1="393" x2="403" y1="1521.047" y2="1521.047"/><rect width="57" height="33.969" x="336" fill="#F1F1F1" style="stroke:#181818;stroke-width:1.5" y="1504.063"/><text x="346" y="1525.201" fill="#000" font-family="sans-serif" font-size="12" lengthAdjust="spacing" textLength="37">Token</text><line style="stroke:#181818;stroke-width:1.5" x1="403" x2="413" y1="1423.109" y2="1423.109"/><rect width="98" height="33.969" x="413" fill="#F1F1F1" style="stroke:#181818;stroke-width:1.5" y="1406.125"/><text x="423" y="1427.264" fill="#000" font-family="sans-serif" font-size="12" lengthAdjust="spacing" textLength="78">TreeIndenter</text><line style="stroke:#181818;stroke-width:1.5" x1="403" x2="413" y1="1472.078" y2="1472.078"/><rect width="107" height="33.969" x="413" fill="#F1F1F1" style="stroke:#181818;stroke-width:1.5" y="1455.094"/><text x="423" y="1476.232" fill="#000" font-family="sans-serif" font-size="12" lengthAdjust="spacing" textLength="87">TokenizedLine</text><line style="stroke:#181818;stroke-width:1.5" x1="403" x2="413" y1="1521.047" y2="1521.047"/><rect width="140" height="33.969" x="413" fill="#F1F1F1" style="stroke:#181818;stroke-width:1.5" y="1504.063"/><text x="423" y="1525.201" fill="#000" font-family="sans-serif" font-size="12" lengthAdjust="spacing" textLength="120">matcherForSelector</text><line style="stroke:#181818;stroke-width:1.5" x1="403" x2="403" y1="1391.125" y2="1521.047"/><line style="stroke:#181818;stroke-width:1.5" x1="553" x2="563" y1="1570.016" y2="1570.016"/><rect width="123" height="33.969" x="430" fill="#F1F1F1" style="stroke:#181818;stroke-width:1.5" y="1553.031"/><text x="440" y="1574.17" fill="#000" font-family="sans-serif" font-size="12" lengthAdjust="spacing" textLength="103">ScopeDescriptor</text><line style="stroke:#181818;stroke-width:1.5" x1="563" x2="573" y1="1374.141" y2="1374.141"/><rect width="208" height="33.969" x="573" fill="#F1F1F1" style="stroke:#181818;stroke-width:1.5" y="1357.156"/><text x="583" y="1378.295" fill="#000" font-family="sans-serif" font-size="12" lengthAdjust="spacing" textLength="188">WASMTreeSitterLanguageNode</text><line style="stroke:#181818;stroke-width:1.5" x1="677" x2="687" y1="1423.109" y2="1423.109"/><rect width="58" height="33.969" x="687" fill="#F1F1F1" style="stroke:#181818;stroke-width:1.5" y="1406.125"/><text x="697" y="1427.264" fill="#000" font-family="sans-serif" font-size="12" lengthAdjust="spacing" textLength="38">Parser</text><line style="stroke:#181818;stroke-width:1.5" x1="677" x2="677" y1="1391.125" y2="1423.109"/><line style="stroke:#181818;stroke-width:1.5" x1="563" x2="600.5" y1="1472.078" y2="1472.078"/><rect width="167" height="33.969" x="600.5" fill="#F1F1F1" style="stroke:#181818;stroke-width:1.5" y="1455.094"/><text x="610.5" y="1476.232" fill="#000" font-family="sans-serif" font-size="12" lengthAdjust="spacing" textLength="147">TextMateLanguageMode</text><line style="stroke:#181818;stroke-width:1.5" x1="674" x2="684" y1="1521.047" y2="1521.047"/><rect width="101" height="33.969" x="573" fill="#F1F1F1" style="stroke:#181818;stroke-width:1.5" y="1504.063"/><text x="583" y="1525.201" fill="#000" font-family="sans-serif" font-size="12" lengthAdjust="spacing" textLength="81">TokenIterator</text><line style="stroke:#181818;stroke-width:1.5" x1="674" x2="684" y1="1570.016" y2="1570.016"/><rect width="96" height="33.969" x="578" fill="#F1F1F1" style="stroke:#181818;stroke-width:1.5" y="1553.031"/><text x="588" y="1574.17" fill="#000" font-family="sans-serif" font-size="12" lengthAdjust="spacing" textLength="76">NullGrammar</text><line style="stroke:#181818;stroke-width:1.5" x1="684" x2="694" y1="1521.047" y2="1521.047"/><rect width="107" height="33.969" x="694" fill="#F1F1F1" style="stroke:#181818;stroke-width:1.5" y="1504.063"/><text x="704" y="1525.201" fill="#000" font-family="sans-serif" font-size="12" lengthAdjust="spacing" textLength="87">TokenizedLine</text><line style="stroke:#181818;stroke-width:1.5" x1="684" x2="694" y1="1570.016" y2="1570.016"/><rect width="123" height="33.969" x="694" fill="#F1F1F1" style="stroke:#181818;stroke-width:1.5" y="1553.031"/><text x="704" y="1574.17" fill="#000" font-family="sans-serif" font-size="12" lengthAdjust="spacing" textLength="103">ScopeDescriptor</text><line style="stroke:#181818;stroke-width:1.5" x1="684" x2="684" y1="1489.063" y2="1570.016"/><line style="stroke:#181818;stroke-width:1.5" x1="563" x2="573" y1="1618.984" y2="1618.984"/><rect width="57" height="33.969" x="573" fill="#F1F1F1" style="stroke:#181818;stroke-width:1.5" y="1602"/><text x="583" y="1623.139" fill="#000" font-family="sans-serif" font-size="12" lengthAdjust="spacing" textLength="37">Token</text><line style="stroke:#181818;stroke-width:1.5" x1="563" x2="563" y1="1342.156" y2="1618.984"/><line style="stroke:#181818;stroke-width:1.5" x1="827" x2="837" y1="345.797" y2="345.797"/><rect width="114" height="33.969" x="837" fill="#F1F1F1" style="stroke:#181818;stroke-width:1.5" y="328.813"/><text x="847" y="349.951" fill="#000" font-family="sans-serif" font-size="12" lengthAdjust="spacing" textLength="94">KemapManager</text><line style="stroke:#181818;stroke-width:1.5" x1="827" x2="837" y1="394.766" y2="394.766"/><rect width="108" height="33.969" x="837" fill="#F1F1F1" style="stroke:#181818;stroke-width:1.5" y="377.781"/><text x="847" y="398.92" fill="#000" font-family="sans-serif" font-size="12" lengthAdjust="spacing" textLength="88">TolltipManager</text><line style="stroke:#181818;stroke-width:1.5" x1="891" x2="901" y1="443.734" y2="443.734"/><rect width="61" height="33.969" x="901" fill="#F1F1F1" style="stroke:#181818;stroke-width:1.5" y="426.75"/><text x="911" y="447.889" fill="#000" font-family="sans-serif" font-size="12" lengthAdjust="spacing" textLength="41">Tooltip</text><line style="stroke:#181818;stroke-width:1.5" x1="891" x2="891" y1="411.75" y2="443.734"/><line style="stroke:#181818;stroke-width:1.5" x1="827" x2="837" y1="492.703" y2="492.703"/><rect width="102" height="33.969" x="837" fill="#F1F1F1" style="stroke:#181818;stroke-width:1.5" y="475.719"/><text x="847" y="496.857" fill="#000" font-family="sans-serif" font-size="12" lengthAdjust="spacing" textLength="82">StyleManager</text><line style="stroke:#181818;stroke-width:1.5" x1="888" x2="898" y1="541.672" y2="541.672"/><rect width="144" height="33.969" x="898" fill="#F1F1F1" style="stroke:#181818;stroke-width:1.5" y="524.688"/><text x="908" y="545.826" fill="#000" font-family="sans-serif" font-size="12" lengthAdjust="spacing" textLength="124">createStylesElement</text><line style="stroke:#181818;stroke-width:1.5" x1="888" x2="898" y1="590.641" y2="590.641"/><rect width="221" height="33.969" x="898" fill="#F1F1F1" style="stroke:#181818;stroke-width:1.5" y="573.656"/><text x="908" y="594.795" fill="#000" font-family="sans-serif" font-size="12" lengthAdjust="spacing" textLength="201">DEPRECATED_SYNTAX_SELECTORS</text><line style="stroke:#181818;stroke-width:1.5" x1="888" x2="888" y1="509.688" y2="590.641"/><line style="stroke:#181818;stroke-width:1.5" x1="827" x2="837" y1="639.609" y2="639.609"/><rect width="150" height="33.969" x="837" fill="#F1F1F1" style="stroke:#181818;stroke-width:1.5" y="622.625"/><text x="847" y="643.764" fill="#000" font-family="sans-serif" font-size="12" lengthAdjust="spacing" textLength="130">ContextMenuManager</text><line style="stroke:#181818;stroke-width:1.5" x1="912" x2="922" y1="688.578" y2="688.578"/><rect width="100" height="33.969" x="922" fill="#F1F1F1" style="stroke:#181818;stroke-width:1.5" y="671.594"/><text x="932" y="692.732" fill="#000" font-family="sans-serif" font-size="12" lengthAdjust="spacing" textLength="80">MenuHelpers</text><line style="stroke:#181818;stroke-width:1.5" x1="912" x2="922" y1="737.547" y2="737.547"/><rect width="109" height="33.969" x="922" fill="#F1F1F1" style="stroke:#181818;stroke-width:1.5" y="720.563"/><text x="932" y="741.701" fill="#000" font-family="sans-serif" font-size="12" lengthAdjust="spacing" textLength="89">sortMenuItems</text><line style="stroke:#181818;stroke-width:1.5" x1="912" x2="912" y1="656.594" y2="737.547"/><line style="stroke:#181818;stroke-width:1.5" x1="827" x2="837" y1="786.516" y2="786.516"/><rect width="115" height="33.969" x="837" fill="#F1F1F1" style="stroke:#181818;stroke-width:1.5" y="769.531"/><text x="847" y="790.67" fill="#000" font-family="sans-serif" font-size="12" lengthAdjust="spacing" textLength="95">HistoryManager</text><line style="stroke:#181818;stroke-width:1.5" x1="827" x2="837" y1="835.484" y2="835.484"/><rect width="138" height="33.969" x="837" fill="#F1F1F1" style="stroke:#181818;stroke-width:1.5" y="818.5"/><text x="847" y="839.639" fill="#000" font-family="sans-serif" font-size="12" lengthAdjust="spacing" textLength="118">NotificationManager</text><line style="stroke:#181818;stroke-width:1.5" x1="906" x2="916" y1="884.453" y2="884.453"/><rect width="86" height="33.969" x="916" fill="#F1F1F1" style="stroke:#181818;stroke-width:1.5" y="867.469"/><text x="926" y="888.607" fill="#000" font-family="sans-serif" font-size="12" lengthAdjust="spacing" textLength="66">Notification</text><line style="stroke:#181818;stroke-width:1.5" x1="906" x2="906" y1="852.469" y2="884.453"/><line style="stroke:#181818;stroke-width:1.5" x1="827" x2="837" y1="933.422" y2="933.422"/><rect width="84" height="33.969" x="837" fill="#F1F1F1" style="stroke:#181818;stroke-width:1.5" y="916.438"/><text x="847" y="937.576" fill="#000" font-family="sans-serif" font-size="12" lengthAdjust="spacing" textLength="64">StateStore</text><line style="stroke:#181818;stroke-width:1.5" x1="827" x2="837" y1="982.391" y2="982.391"/><rect width="113" height="33.969" x="837" fill="#F1F1F1" style="stroke:#181818;stroke-width:1.5" y="965.406"/><text x="847" y="986.545" fill="#000" font-family="sans-serif" font-size="12" lengthAdjust="spacing" textLength="93">ThemeManager</text><line style="stroke:#181818;stroke-width:1.5" x1="893.5" x2="903.5" y1="1031.359" y2="1031.359"/><rect width="134" height="33.969" x="903.5" fill="#F1F1F1" style="stroke:#181818;stroke-width:1.5" y="1014.375"/><text x="913.5" y="1035.514" fill="#000" font-family="sans-serif" font-size="12" lengthAdjust="spacing" textLength="114">LessCompileCache</text><line style="stroke:#181818;stroke-width:1.5" x1="893.5" x2="893.5" y1="999.375" y2="1031.359"/><line style="stroke:#181818;stroke-width:1.5" x1="827" x2="837" y1="1080.328" y2="1080.328"/><rect width="61" height="33.969" x="837" fill="#F1F1F1" style="stroke:#181818;stroke-width:1.5" y="1063.344"/><text x="847" y="1084.482" fill="#000" font-family="sans-serif" font-size="12" lengthAdjust="spacing" textLength="41">Project</text><line style="stroke:#181818;stroke-width:1.5" x1="867.5" x2="877.5" y1="1129.297" y2="1129.297"/><rect width="79" height="33.969" x="877.5" fill="#F1F1F1" style="stroke:#181818;stroke-width:1.5" y="1112.313"/><text x="887.5" y="1133.451" fill="#000" font-family="sans-serif" font-size="12" lengthAdjust="spacing" textLength="59">watchPath</text><line style="stroke:#181818;stroke-width:1.5" x1="867.5" x2="877.5" y1="1178.266" y2="1178.266"/><rect width="168" height="33.969" x="877.5" fill="#F1F1F1" style="stroke:#181818;stroke-width:1.5" y="1161.281"/><text x="887.5" y="1182.42" fill="#000" font-family="sans-serif" font-size="12" lengthAdjust="spacing" textLength="148">DefaultDirectoryProvider</text><line style="stroke:#181818;stroke-width:1.5" x1="867.5" x2="877.5" y1="1227.234" y2="1227.234"/><rect width="57" height="33.969" x="877.5" fill="#F1F1F1" style="stroke:#181818;stroke-width:1.5" y="1210.25"/><text x="887.5" y="1231.389" fill="#000" font-family="sans-serif" font-size="12" lengthAdjust="spacing" textLength="37">Model</text><line style="stroke:#181818;stroke-width:1.5" x1="867.5" x2="877.5" y1="1276.203" y2="1276.203"/><rect width="151" height="33.969" x="877.5" fill="#F1F1F1" style="stroke:#181818;stroke-width:1.5" y="1259.219"/><text x="887.5" y="1280.357" fill="#000" font-family="sans-serif" font-size="12" lengthAdjust="spacing" textLength="131">GitRepositoryProvider</text><line style="stroke:#181818;stroke-width:1.5" x1="867.5" x2="867.5" y1="1097.313" y2="1276.203"/><line style="stroke:#181818;stroke-width:1.5" x1="827" x2="980.5" y1="1325.172" y2="1325.172"/><rect width="89" height="33.969" x="980.5" fill="#F1F1F1" style="stroke:#181818;stroke-width:1.5" y="1308.188"/><text x="990.5" y="1329.326" fill="#000" font-family="sans-serif" font-size="12" lengthAdjust="spacing" textLength="69">Workspace</text><line style="stroke:#181818;stroke-width:1.5" x1="1015" x2="1025" y1="1374.141" y2="1374.141"/><rect width="178" height="33.969" x="837" fill="#F1F1F1" style="stroke:#181818;stroke-width:1.5" y="1357.156"/><text x="847" y="1378.295" fill="#000" font-family="sans-serif" font-size="12" lengthAdjust="spacing" textLength="158">RipgrepDirectorySearcher</text><line style="stroke:#181818;stroke-width:1.5" x1="1015" x2="1025" y1="1423.109" y2="1423.109"/><rect width="176" height="33.969" x="839" fill="#F1F1F1" style="stroke:#181818;stroke-width:1.5" y="1406.125"/><text x="849" y="1427.264" fill="#000" font-family="sans-serif" font-size="12" lengthAdjust="spacing" textLength="156">createWorkspaceElement</text><line style="stroke:#181818;stroke-width:1.5" x1="1015" x2="1025" y1="1472.078" y2="1472.078"/><rect width="84" height="33.969" x="931" fill="#F1F1F1" style="stroke:#181818;stroke-width:1.5" y="1455.094"/><text x="941" y="1476.232" fill="#000" font-family="sans-serif" font-size="12" lengthAdjust="spacing" textLength="64">StateStore</text><line style="stroke:#181818;stroke-width:1.5" x1="1015" x2="1025" y1="1521.047" y2="1521.047"/><rect width="51" height="33.969" x="964" fill="#F1F1F1" style="stroke:#181818;stroke-width:1.5" y="1504.063"/><text x="974" y="1525.201" fill="#000" font-family="sans-serif" font-size="12" lengthAdjust="spacing" textLength="31">Panel</text><line style="stroke:#181818;stroke-width:1.5" x1="1015" x2="1025" y1="1570.016" y2="1570.016"/><rect width="51" height="33.969" x="964" fill="#F1F1F1" style="stroke:#181818;stroke-width:1.5" y="1553.031"/><text x="974" y="1574.17" fill="#000" font-family="sans-serif" font-size="12" lengthAdjust="spacing" textLength="31">Dock</text><line style="stroke:#181818;stroke-width:1.5" x1="1025" x2="1035" y1="1374.141" y2="1374.141"/><rect width="173" height="33.969" x="1035" fill="#F1F1F1" style="stroke:#181818;stroke-width:1.5" y="1357.156"/><text x="1045" y="1378.295" fill="#000" font-family="sans-serif" font-size="12" lengthAdjust="spacing" textLength="153">DefaultDirectorySearcher</text><line style="stroke:#181818;stroke-width:1.5" x1="1025" x2="1035" y1="1423.109" y2="1423.109"/><rect width="129" height="33.969" x="1035" fill="#F1F1F1" style="stroke:#181818;stroke-width:1.5" y="1406.125"/><text x="1045" y="1427.264" fill="#000" font-family="sans-serif" font-size="12" lengthAdjust="spacing" textLength="109">WorkspaceCenter</text><line style="stroke:#181818;stroke-width:1.5" x1="1025" x2="1035" y1="1472.078" y2="1472.078"/><rect width="108" height="33.969" x="1035" fill="#F1F1F1" style="stroke:#181818;stroke-width:1.5" y="1455.094"/><text x="1045" y="1476.232" fill="#000" font-family="sans-serif" font-size="12" lengthAdjust="spacing" textLength="88">PanelContainer</text><line style="stroke:#181818;stroke-width:1.5" x1="1025" x2="1035" y1="1521.047" y2="1521.047"/><rect width="81" height="33.969" x="1035" fill="#F1F1F1" style="stroke:#181818;stroke-width:1.5" y="1504.063"/><text x="1045" y="1525.201" fill="#000" font-family="sans-serif" font-size="12" lengthAdjust="spacing" textLength="61">TextEditor</text><line style="stroke:#181818;stroke-width:1.5" x1="1025" x2="1035" y1="1570.016" y2="1570.016"/><rect width="48" height="33.969" x="1035" fill="#F1F1F1" style="stroke:#181818;stroke-width:1.5" y="1553.031"/><text x="1045" y="1574.17" fill="#000" font-family="sans-serif" font-size="12" lengthAdjust="spacing" textLength="28">Task</text><line style="stroke:#181818;stroke-width:1.5" x1="1025" x2="1025" y1="1342.156" y2="1570.016"/><line style="stroke:#181818;stroke-width:1.5" x1="827" x2="827" y1="313.813" y2="1325.172"/><line style="stroke:#181818;stroke-width:1.5" x1="216" x2="216" y1="264.844" y2="296.828"/><line style="stroke:#181818;stroke-width:1.5" x1="111" x2="111" y1="215.875" y2="247.859"/><line style="stroke:#181818;stroke-width:1.5" x1="1218" x2="1228" y1="149.922" y2="149.922"/><rect width="132" height="33.969" x="1228" fill="#F1F1F1" style="stroke:#181818;stroke-width:1.5" y="132.938"/><text x="1238" y="154.076" fill="#000" font-family="sans-serif" font-size="12" lengthAdjust="spacing" textLength="112">Startup w/ Squirrel</text><line style="stroke:#181818;stroke-width:1.5" x1="1218" x2="1218" y1="117.938" y2="198.891"/><line style="stroke:#181818;stroke-width:1.5" x1="685" x2="1218" y1="63.969" y2="63.969"/><rect width="89" height="33.969" x="640.5" fill="#F1F1F1" style="stroke:#181818;stroke-width:1.5" y="10"/><text x="650.5" y="31.139" fill="#000" font-family="sans-serif" font-size="12" lengthAdjust="spacing" textLength="69">Initialization</text><line style="stroke:#181818;stroke-width:1.5" x1="685" x2="685" y1="43.969" y2="63.969"/></g></svg>